<?xml version="1.0" encoding="utf-8"?>
<!-- Generator: Adobe Illustrator 16.0.0, SVG Export Plug-In . SVG Version: 6.00 Build 0)  -->
<!DOCTYPE svg PUBLIC "-//W3C//DTD SVG 1.1//EN" "http://www.w3.org/Graphics/SVG/1.1/DTD/svg11.dtd">
<svg version="1.1" id="Layer_1" xmlns="http://www.w3.org/2000/svg" xmlns:xlink="http://www.w3.org/1999/xlink" x="0px" y="0px"
	 width="95px" height="80px" viewBox="0 0 95 80" enable-background="new 0 0 95 80" xml:space="preserve">
<g>
	<g>
		<path fill="#FFFFFF" d="M67.544,9.932V3.25h-6.68v6.682H34.136V3.25h-6.682v6.682H10.75V76.75h73.5V9.932H67.544z M77.565,70.065
			H17.432V36.66h60.134V70.065z M17.432,29.978V16.614h10.022v6.682h6.682v-6.682h26.728v6.682h6.68v-6.682h10.021v13.364H17.432z"
			/>
		<rect x="24.114" y="43.338" fill="#FFFFFF" width="6.682" height="6.686"/>
		<rect x="37.478" y="43.338" fill="#FFFFFF" width="6.682" height="6.686"/>
		<rect x="50.838" y="43.338" fill="#FFFFFF" width="6.686" height="6.686"/>
		<rect x="64.206" y="43.338" fill="#FFFFFF" width="6.68" height="6.686"/>
		<rect x="24.114" y="56.706" fill="#FFFFFF" width="6.682" height="6.68"/>
		<rect x="37.478" y="56.706" fill="#FFFFFF" width="6.682" height="6.68"/>
		<rect x="50.838" y="56.706" fill="#FFFFFF" width="6.686" height="6.68"/>
		<rect x="64.206" y="56.706" fill="#FFFFFF" width="6.68" height="6.68"/>
	</g>
</g>
</svg>
