<?xml version="1.0" encoding="utf-8"?>
<!-- Generator: Adobe Illustrator 16.0.0, SVG Export Plug-In . SVG Version: 6.00 Build 0)  -->
<!DOCTYPE svg PUBLIC "-//W3C//DTD SVG 1.1//EN" "http://www.w3.org/Graphics/SVG/1.1/DTD/svg11.dtd">
<svg version="1.1" id="Layer_1" xmlns="http://www.w3.org/2000/svg" xmlns:xlink="http://www.w3.org/1999/xlink" x="0px" y="0px"
	 width="95px" height="80px" viewBox="-75 -30 95 80" enable-background="new -75 -30 95 80" xml:space="preserve">
<g>
	<path fill="#FFFFFF" d="M-16.978-11.75c-0.574-1.36-1.399-2.583-2.448-3.629c-1.049-1.049-2.27-1.874-3.63-2.449
		c-1.406-0.596-2.904-0.898-4.445-0.898c-1.542,0-3.038,0.302-4.445,0.898c-1.36,0.577-2.583,1.399-3.63,2.449
		c-1.05,1.046-1.874,2.269-2.448,3.629c-0.598,1.407-0.898,2.904-0.898,4.445c0,2.588,1.831,6.76,5.443,12.399
		c2.647,4.135,5.334,7.594,5.36,7.628l0.617,0.794l0.615-0.794c0.028-0.034,2.713-3.494,5.362-7.628
		c3.611-5.639,5.445-9.811,5.445-12.399C-16.078-8.846-16.383-10.343-16.978-11.75z M-27.5-3.389c-2.445,0-4.427-1.982-4.427-4.426
		c0-2.445,1.983-4.428,4.427-4.428c2.445,0,4.429,1.983,4.429,4.428C-23.071-5.371-25.055-3.389-27.5-3.389z"/>
	<path fill="#FFFFFF" d="M-15.721,3.823l-2.571-0.029c-0.52,0.881-1.059,1.758-1.604,2.62l2.305,0.025l6.361,17.96h-32.574
		l6.18-17.951h2.375c-0.551-0.865-1.094-1.75-1.617-2.636h-2.64L-47.5,27.035h40L-15.721,3.823z"/>
</g>
</svg>
