<?xml version="1.0" encoding="utf-8"?>
<!-- Generator: Adobe Illustrator 16.0.0, SVG Export Plug-In . SVG Version: 6.00 Build 0)  -->
<!DOCTYPE svg PUBLIC "-//W3C//DTD SVG 1.1//EN" "http://www.w3.org/Graphics/SVG/1.1/DTD/svg11.dtd">
<svg version="1.1" id="Layer_1" xmlns="http://www.w3.org/2000/svg" xmlns:xlink="http://www.w3.org/1999/xlink" x="0px" y="0px"
	 width="155.668px" height="100px" viewBox="0 0 155.668 100" enable-background="new 0 0 155.668 100" xml:space="preserve">
<rect fill="#EA0D7E" width="135" height="100"/>
<g>
	<polygon fill="#FFFFFF" points="13.356,14 60.015,60.771 60.015,49.813 24.315,14 	"/>
	<polygon fill="#FFFFFF" points="44.312,14 90.971,60.771 90.971,49.813 55.156,14 	"/>
	<polygon fill="#FFFFFF" points="67.81,46.875 75.494,54.557 75.494,68.229 67.81,68.229 	"/>
	<rect x="98.652" y="14" fill="#FFFFFF" width="7.797" height="54.229"/>
	<polygon fill="#FFFFFF" points="44.923,77.087 43.98,83.475 42.587,77.087 40.211,77.087 38.875,83.475 37.889,77.087 
		35.661,77.087 37.349,85.865 40.17,85.865 41.317,80.1 42.492,85.865 45.422,85.865 47.017,77.087 	"/>
	<polygon fill="#FFFFFF" points="53.157,77.087 51.605,80.682 49.931,77.087 47.582,77.087 50.417,82.462 50.417,85.865 
		52.591,85.865 52.591,82.395 55.333,77.087 	"/>
	<polygon fill="#FFFFFF" points="62.285,77.087 62.285,82.65 59.017,77.087 56.518,77.087 56.518,85.865 58.61,85.865 58.61,80.059 
		62.026,85.865 64.377,85.865 64.377,77.087 	"/>
	<polygon fill="#FFFFFF" points="75.176,77.087 74.233,83.475 72.84,77.087 70.463,77.087 69.128,83.475 68.142,77.087 
		65.914,77.087 67.603,85.865 70.424,85.865 71.571,80.1 72.748,85.865 75.675,85.865 77.269,77.087 	"/>
	<path fill="#FFFFFF" d="M87.07,81.503c0,2.31-1.619,4.497-4.441,4.497c-2.521,0-4.35-1.77-4.35-4.43
		c0-2.471,1.689-4.604,4.35-4.604C85.127,76.966,87.07,78.479,87.07,81.503 M84.762,81.503c0-1.851-0.701-2.769-2.135-2.769
		c-1.361,0-2.039,1.121-2.039,2.836c0,1.484,0.688,2.66,2.039,2.66C84.045,84.23,84.762,83.164,84.762,81.503"/>
	<path fill="#FFFFFF" d="M97.021,81.503c0,2.31-1.621,4.497-4.443,4.497c-2.521,0-4.348-1.77-4.348-4.43
		c0-2.471,1.688-4.604,4.348-4.604C95.076,76.966,97.021,78.479,97.021,81.503 M94.711,81.503c0-1.851-0.703-2.769-2.137-2.769
		c-1.361,0-2.037,1.121-2.037,2.836c0,1.484,0.688,2.66,2.037,2.66C93.996,84.23,94.711,83.164,94.711,81.503"/>
	<path fill="#FFFFFF" d="M98.678,77.086h3.646c3.145,0,4.318,1.568,4.318,4.201c0,2.593-0.797,4.578-4.309,4.578h-3.66
		L98.678,77.086L98.678,77.086z M100.854,78.855v5.213h1.596c1.594,0,1.889-0.959,1.889-2.443c0-1.715-0.338-2.77-2.08-2.77H100.854
		z"/>
</g>
<polygon fill="#2D2E2D" points="155.668,80.167 135,100 135,0 "/>
</svg>
