<?xml version="1.0" encoding="utf-8"?>
<!-- Generator: Adobe Illustrator 16.0.0, SVG Export Plug-In . SVG Version: 6.00 Build 0)  -->
<!DOCTYPE svg PUBLIC "-//W3C//DTD SVG 1.1//EN" "http://www.w3.org/Graphics/SVG/1.1/DTD/svg11.dtd">
<svg version="1.1" id="Layer_1" xmlns="http://www.w3.org/2000/svg" xmlns:xlink="http://www.w3.org/1999/xlink" x="0px" y="0px"
	 width="135px" height="85px" viewBox="0 0 135 85" enable-background="new 0 0 135 85" xml:space="preserve">
<g>
	<polygon fill="#FFFFFF" points="13.356,5.333 60.015,52.104 60.015,41.146 24.315,5.333 	"/>
	<polygon fill="#FFFFFF" points="44.312,5.333 90.971,52.104 90.971,41.146 55.156,5.333 	"/>
	<polygon fill="#FFFFFF" points="67.81,38.208 75.494,45.89 75.494,59.562 67.81,59.562 	"/>
	<rect x="98.652" y="5.333" fill="#FFFFFF" width="7.797" height="54.229"/>
	<polygon fill="#FFFFFF" points="44.923,68.42 43.98,74.808 42.587,68.42 40.211,68.42 38.875,74.808 37.889,68.42 35.661,68.42 
		37.349,77.198 40.17,77.198 41.317,71.433 42.492,77.198 45.422,77.198 47.017,68.42 	"/>
	<polygon fill="#FFFFFF" points="53.157,68.42 51.605,72.015 49.931,68.42 47.582,68.42 50.417,73.795 50.417,77.198 52.591,77.198 
		52.591,73.728 55.333,68.42 	"/>
	<polygon fill="#FFFFFF" points="62.285,68.42 62.285,73.983 59.017,68.42 56.518,68.42 56.518,77.198 58.61,77.198 58.61,71.392 
		62.026,77.198 64.377,77.198 64.377,68.42 	"/>
	<polygon fill="#FFFFFF" points="75.176,68.42 74.233,74.808 72.84,68.42 70.463,68.42 69.128,74.808 68.142,68.42 65.914,68.42 
		67.603,77.198 70.424,77.198 71.571,71.433 72.748,77.198 75.675,77.198 77.269,68.42 	"/>
	<path fill="#FFFFFF" d="M87.07,72.836c0,2.31-1.619,4.497-4.441,4.497c-2.521,0-4.35-1.77-4.35-4.43
		c0-2.471,1.689-4.604,4.35-4.604C85.127,68.299,87.07,69.812,87.07,72.836 M84.762,72.836c0-1.851-0.701-2.769-2.135-2.769
		c-1.361,0-2.039,1.121-2.039,2.836c0,1.484,0.688,2.66,2.039,2.66C84.045,75.563,84.762,74.497,84.762,72.836"/>
	<path fill="#FFFFFF" d="M97.021,72.836c0,2.31-1.621,4.497-4.443,4.497c-2.521,0-4.348-1.77-4.348-4.43
		c0-2.471,1.688-4.604,4.348-4.604C95.076,68.299,97.021,69.812,97.021,72.836 M94.711,72.836c0-1.851-0.703-2.769-2.137-2.769
		c-1.361,0-2.037,1.121-2.037,2.836c0,1.484,0.688,2.66,2.037,2.66C93.996,75.563,94.711,74.497,94.711,72.836"/>
	<path fill="#FFFFFF" d="M98.678,68.419h3.646c3.145,0,4.318,1.568,4.318,4.201c0,2.593-0.797,4.578-4.309,4.578h-3.66
		L98.678,68.419L98.678,68.419z M100.854,70.188v5.213h1.596c1.594,0,1.889-0.959,1.889-2.443c0-1.715-0.338-2.77-2.08-2.77H100.854
		z"/>
</g>
</svg>
