<?xml version="1.0" encoding="utf-8"?>
<!-- Generator: Adobe Illustrator 16.0.0, SVG Export Plug-In . SVG Version: 6.00 Build 0)  -->
<!DOCTYPE svg PUBLIC "-//W3C//DTD SVG 1.1//EN" "http://www.w3.org/Graphics/SVG/1.1/DTD/svg11.dtd">
<svg version="1.1" id="Layer_1" xmlns="http://www.w3.org/2000/svg" xmlns:xlink="http://www.w3.org/1999/xlink" x="0px" y="0px"
	 width="104px" height="82.667px" viewBox="0 0 104 82.667" enable-background="new 0 0 104 82.667" xml:space="preserve">
<g>
	<polygon fill="#00ABC5" points="16.315,5.333 52.014,41.146 52.014,52.105 5.356,5.333 	"/>
	<polygon fill="#F47920" points="47.156,5.333 82.968,41.146 82.968,52.105 36.311,5.333 	"/>
	<polygon fill="#00AB87" points="59.809,38.208 67.492,45.891 67.492,59.561 59.809,59.561 	"/>
	<rect x="90.652" y="5.333" fill="#ED017F" width="7.795" height="54.227"/>
	<polygon points="35.978,74.809 36.922,68.42 39.016,68.42 37.422,77.199 34.492,77.199 33.317,71.432 32.169,77.199 29.347,77.199 
		27.659,68.42 29.887,68.42 30.873,74.809 32.209,68.42 34.586,68.42 	"/>
	<polygon points="43.603,72.014 45.157,68.42 47.331,68.42 44.589,73.729 44.589,77.199 42.415,77.199 42.415,73.795 39.58,68.42 
		41.929,68.42 	"/>
	<polygon points="50.61,77.199 48.516,77.199 48.516,68.42 51.015,68.42 54.282,73.984 54.282,68.42 56.376,68.42 56.376,77.199 
		54.027,77.199 50.61,71.393 	"/>
	<polygon points="66.232,74.809 67.175,68.42 69.269,68.42 67.675,77.199 64.746,77.199 63.57,71.432 62.422,77.199 59.601,77.199 
		57.912,68.42 60.14,68.42 61.126,74.809 62.461,68.42 64.839,68.42 	"/>
	<path d="M79.07,72.836c0,2.311-1.619,4.498-4.443,4.498c-2.523,0-4.348-1.77-4.348-4.43c0-2.471,1.688-4.605,4.348-4.605
		C77.126,68.299,79.07,69.812,79.07,72.836 M76.761,72.836c0-1.85-0.703-2.768-2.135-2.768c-1.363,0-2.039,1.121-2.039,2.836
		c0,1.484,0.689,2.66,2.039,2.66C76.044,75.564,76.761,74.498,76.761,72.836"/>
	<path d="M89.019,72.836c0,2.311-1.619,4.498-4.443,4.498c-2.523,0-4.348-1.77-4.348-4.43c0-2.471,1.688-4.605,4.348-4.605
		C87.076,68.299,89.019,69.812,89.019,72.836 M86.71,72.836c0-1.85-0.703-2.768-2.135-2.768c-1.363,0-2.039,1.121-2.039,2.836
		c0,1.484,0.689,2.66,2.039,2.66C85.994,75.564,86.71,74.498,86.71,72.836"/>
	<path d="M90.677,68.42h3.646c3.146,0,4.32,1.568,4.32,4.201c0,2.592-0.797,4.578-4.307,4.578h-3.66V68.42z M92.851,70.189v5.213
		h1.594c1.594,0,1.891-0.959,1.891-2.443c0-1.715-0.34-2.77-2.08-2.77H92.851z"/>
</g>
</svg>
