<?xml version="1.0" encoding="utf-8"?>
<!-- Generator: Adobe Illustrator 16.0.0, SVG Export Plug-In . SVG Version: 6.00 Build 0)  -->
<!DOCTYPE svg PUBLIC "-//W3C//DTD SVG 1.1//EN" "http://www.w3.org/Graphics/SVG/1.1/DTD/svg11.dtd">
<svg version="1.1" id="Layer_1" xmlns="http://www.w3.org/2000/svg" xmlns:xlink="http://www.w3.org/1999/xlink" x="0px" y="0px"
	 width="150px" height="100px" viewBox="-28.356 -28 150 100" enable-background="new -28.356 -28 150 100" xml:space="preserve">
<g>
	<polygon fill="#FFFFFF" points="0,-14 46.659,32.771 46.659,21.813 10.959,-14 	"/>
	<polygon fill="#FFFFFF" points="30.956,-14 77.614,32.771 77.614,21.813 41.8,-14 	"/>
	<polygon fill="#FFFFFF" points="54.454,18.875 62.137,26.557 62.137,40.229 54.454,40.229 	"/>
	<rect x="85.297" y="-14" fill="#FFFFFF" width="7.795" height="54.229"/>
	<polygon fill="#FFFFFF" points="31.567,49.087 30.624,55.475 29.231,49.087 26.855,49.087 25.518,55.475 24.533,49.087 
		22.304,49.087 23.993,57.865 26.814,57.865 27.961,52.1 29.136,57.865 32.066,57.865 33.661,49.087 	"/>
	<polygon fill="#FFFFFF" points="39.801,49.087 38.249,52.682 36.575,49.087 34.225,49.087 37.06,54.462 37.06,57.865 
		39.235,57.865 39.235,54.395 41.976,49.087 	"/>
	<polygon fill="#FFFFFF" points="48.928,49.087 48.928,54.65 45.661,49.087 43.162,49.087 43.162,57.865 45.254,57.865 
		45.254,52.059 48.67,57.865 51.021,57.865 51.021,49.087 	"/>
	<polygon fill="#FFFFFF" points="61.82,49.087 60.877,55.475 59.484,49.087 57.107,49.087 55.772,55.475 54.786,49.087 
		52.557,49.087 54.247,57.865 57.068,57.865 58.215,52.1 59.391,57.865 62.319,57.865 63.913,49.087 	"/>
	<path fill="#FFFFFF" d="M73.715,53.503c0,2.31-1.621,4.497-4.444,4.497c-2.522,0-4.347-1.77-4.347-4.43
		c0-2.471,1.688-4.604,4.347-4.604C71.771,48.966,73.715,50.479,73.715,53.503 M71.406,53.503c0-1.851-0.702-2.769-2.136-2.769
		c-1.361,0-2.039,1.121-2.039,2.836c0,1.484,0.689,2.66,2.039,2.66C70.689,56.23,71.406,55.164,71.406,53.503"/>
	<path fill="#FFFFFF" d="M83.665,53.503c0,2.31-1.621,4.497-4.445,4.497c-2.521,0-4.346-1.77-4.346-4.43
		c0-2.471,1.688-4.604,4.346-4.604C81.719,48.966,83.665,50.479,83.665,53.503 M81.355,53.503c0-1.851-0.703-2.769-2.136-2.769
		c-1.362,0-2.039,1.121-2.039,2.836c0,1.484,0.689,2.66,2.039,2.66C80.638,56.23,81.355,55.164,81.355,53.503"/>
	<path fill="#FFFFFF" d="M85.321,49.086h3.646c3.146,0,4.32,1.568,4.32,4.201c0,2.593-0.797,4.578-4.308,4.578h-3.66L85.321,49.086
		L85.321,49.086z M87.497,50.855v5.213h1.594c1.594,0,1.89-0.959,1.89-2.443c0-1.715-0.338-2.77-2.08-2.77H87.497z"/>
</g>
</svg>
